

Release info:

General
Format                                   : Matroska
Format version                           : Version 2
File size                                : 691 MiB
Duration                                 : 1h 30mn
Overall bit rate                         : 1 066 Kbps

Video
ID                                       : 1
Format                                   : AVC
Format/Info                              : Advanced Video Codec
Format profile                           : High@L3.1
Format settings, CABAC                   : Yes
Format settings, ReFrames                : 4 frames
Muxing mode                              : Header stripping
Codec ID                                 : V_MPEG4/ISO/AVC
Duration                                 : 1h 30mn
Bit rate                                 : 938 Kbps
Width                                    : 1 280 pixels
Height                                   : 720 pixels
Display aspect ratio                     : 16:9
Frame rate mode                          : Constant
Frame rate                               : 23.976 fps
Color space                              : YUV
Chroma subsampling                       : 4:2:0
Bit depth                                : 8 bits
Scan type                                : Progressive
Bits/(Pixel*Frame)                       : 0.042
Stream size                              : 594 MiB (86%)
Language                                 : English
Default                                  : Yes
Forced                                   : No

Audio
ID                                       : 3
Format                                   : MPEG Audio
Format version                           : Version 1
Format profile                           : Layer 3
Mode                                     : Joint stereo
Mode extension                           : MS Stereo
Muxing mode                              : Header stripping
Codec ID                                 : A_MPEG/L3
Codec ID/Hint                            : MP3
Duration                                 : 1h 30mn
Bit rate mode                            : Constant
Bit rate                                 : 128 Kbps
Channel(s)                               : 2 channels
Sampling rate                            : 44.1 KHz
Compression mode                         : Lossy
Stream size                              : 82.9 MiB (12%)
Language                                 : English
Default                                  : Yes
Forced                                   : No

Text
ID                                       : 2
Format                                   : UTF-8
Codec ID                                 : S_TEXT/UTF8
Codec ID/Info                            : UTF-8 Plain Text
Language                                 : English
Default                                  : No
Forced                                   : No



Source:
credit to original movie ripper Ganool (Thanks)

IMDB Info:

In 1977 a group of young, horny, out of control Christians are spending a fun filled weekend at the Happy Day Bible Camp... 

Director: Vito Trabucco
Writers: Vito Trabucco, Shelby McIntyre
Stars: Reggie Bannister, Tim Sullivan and Ron Jeremy

Genres: Comedy | Horror 
 
http://www.imdb.com/title/tt1663625/

Screen Shot:
 
http://www.shotpix.com/images/65030625371357613716.png[/img] 
http://www.shotpix.com/images/87586850894124319010.png[/img] 
http://www.shotpix.com/images/10531398792420666669.png 
http://www.shotpix.com/images/53573098729513152639.png 
http://www.shotpix.com/images/73213007521913648895.png 
http://www.shotpix.com/images/93142956373151224264.png